<svg width="1052.3622" xmlns="http://www.w3.org/2000/svg" height="744.09448" xmlns:xlink="http://www.w3.org/1999/xlink">
<defs>
<linearGradient xlink:href="#linearGradient2159" id="linearGradient2285" y1="-Infinity" y2="Infinity" x1="0.756957" x2="0.165947"/>
<linearGradient xlink:href="#linearGradient2159" id="linearGradient2287" y1="-Infinity" y2="Infinity" x1="0.876851" x2="0.077192"/>
<linearGradient spreadMethod="reflect" xlink:href="#linearGradient2215" id="linearGradient2283" y1="0.104508" y2="0.703398" x1="0.563717" x2="0.560177"/>
<linearGradient id="linearGradient2159">
<stop offset="0" style="stop-color:#2c0000" id="stop2161"/>
<stop offset="1" style="stop-color:#89777f" id="stop2167"/>
<stop offset="1" style="stop-color:#e7eeff;stop-opacity:0" id="stop2163"/>
</linearGradient>
<linearGradient id="linearGradient2215">
<stop offset="0" style="stop-color:#00002d;stop-opacity:.633" id="stop2217"/>
<stop offset="1" style="stop-color:#00002d;stop-opacity:.184" id="stop2226"/>
<stop offset="1" style="stop-color:#00002d;stop-opacity:0" id="stop2219"/>
</linearGradient>
<linearGradient xlink:href="#linearGradient2215" id="linearGradient2281" y1="0.133937" y2="1.16846" x1="0.493734" x2="0.349663"/>
</defs>
<g>
<g id="layer1">
<g style="stroke-width:3" id="g2255" transform="matrix(1.150893,0.000000,0.000000,1.150893,-79.39613,-32.38948)">
<g style="fill-rule:evenodd">
<g style="fill:#e7eeff;stroke:#000">
<path id="path1372" d="m 487.7458,235.9928 l 35.7458,-2.8983 c 0,0 7.72882,-0.966095 13.5255,2.8983 5.79657,3.86441 10.6271,6.76271 11.5932,11.5932 0.966125,4.8305 3.86444,13.5254 1.93219,18.3559 -1.93219,4.83054 -1.93219,10.6271 -6.7627,12.5593 -4.83051,1.93222 -8.69488,3.86441 -13.5255,4.83051 -4.83051,0.966125 -88.8813,-3.86441 -88.8813,-3.86441 0,0 3.86441,-4.83047 6.7627,-6.7627 2.89832,-1.93219 2.89832,-2.89832 2.89832,-2.89832 0,0 -0.966095,3.86441 -1.93222,-3.86441 -0.966095,-7.72879 0,-9.66101 4.83051,-15.4576 4.83051,-5.79662 5.79663,-9.66101 15.4576,-11.5932 9.66101,-1.93219 18.3559,-2.8983 18.3559,-2.8983 z "/>
<path id="path1362" d="m268,174.094482l114,-68l30,-16l22,-4l-146,100l-20,-12z"/>
</g>
<path style="fill-opacity:.092" id="path2209" d="m 274.6902,173.085 l 101.657,-60.5616 -99.4941,73.5391 -2.1629,-12.9775 z "/>
<path style="fill:#e7eeff;stroke:#000" id="path1360" d="m636,290.094482l272,-188c0,0 14,-8 24,-6c10,2 10,2 10,2l-238,198l-68,-6z"/>
<path style="fill-opacity:.092" id="path2205" d="m 692.1328,294.2082 l 227.1061,-183.8478 -250.8981,190.3365 23.7921,-6.4887 z "/>
<path style="fill:#e7eeff;stroke:#000" id="path1358" d="m 386,276.0945 c 0,0 40,-2 84,0 44,2 222,14 236,16 10.722,-0.048737 26.3123,5.18051 41.9512,10.7708 14,6 38.0488,23.2292 40.0488,23.2292 2,0 30.3123,8.36099 37.5903,12.361 15.0632,7.27799 51.5902,32.4585 63.639,57.639 7.5415,13.2979 8.77075,22 4.77075,32 -4,10 -20,22 -30,24 -10,2 -58,2 -80,0 -22,-2 -186,-34 -186,-34 l -68,12 -386.339,178.2034 c -11.339,-0.677979 -19.3898,-3.79657 -27.0339,-6.20337 -6,-10 1.37288,-10 1.37288,-10 l 330,-178 c 0,0 -21.1017,-12.9661 -27.1017,-22.9661 -6,-10 -14.8983,-17.0339 -14.8983,-17.0339 l -12,-8 -45.2696,-25.1772 -28.7304,-46.8228 1.0354,-9.1063 -83.0354,-110.8937 c 0,0 22,-6 30,-4 8,2 118,106 118,106 z "/>
</g>
<path style="stroke-opacity:.168;fill-opacity:.043;stroke-linecap:round" id="path2253" d="m 446.3508,341.9073 a 42.486,16.1452 0 1,1 -84.972,-6.71881 42.486,16.1452 0 1,1 84.972,6.71881 z "/>
<g style="fill-rule:evenodd">
<path style="stroke-opacity:.168;fill:none;stroke:#000058;fill-opacity:.75;stroke-linecap:round" id="path2251" d="m 402.3022,356.9327 l 281.1789,62.7245 c 0,0 12.9775,2.1629 36.7696,6.48874"/>
<path style="fill-opacity:.119" id="path1374" d="m 393,352.264 l 15.4576,-6.3103 c 0,0 13.5254,-4.20685 5.7966,-12.6206 -7.72882,-8.41376 -25.1187,2.10342 -25.1187,2.10342 l 3.8644,16.8275 z "/>
<g style="stroke:#000">
<g style="fill:#e7eeff">
<path id="path1364" d="m244,186.094482l-134,74c0,0 6,2 14,2c8,-2 156,-70 152,-72c-4,-2 -10,-4 -10,-4l-22,0z"/>
<path id="path1370" d="m 333.3051,316.1114 l 40.5763,-.9661 c 0,0 5.79663,0 11.5932,2.89832 5.7966,2.89828 14.4915,12.5593 15.4576,16.4237 0.966125,3.86441 3.86441,18.356 -1.93219,25.1187 -5.7966,6.76273 -11.5932,12.5593 -17.3898,14.4915 -5.7966,1.93219 -23.1864,1.93219 -23.1864,1.93219 0,0 -16.4237,-4.83051 -25.1187,-9.66101 -8.69492,-4.83051 -17.3898,-15.4576 -18.3559,-21.2542 -0.966095,-5.7966 -0.966095,-13.5254 2.89832,-17.3898 3.86438,-3.86441 15.4576,-11.5932 15.4576,-11.5932 z "/>
</g>
<path style="fill:url(#linearGradient2281)" id="path1376" d="m 717.8125,294.8438 c 0,0 1.93219,0.98465 0,6.78125 -4.39069,5.7966 -9.65625,7.71875 -9.65625,7.71875 l 40.9375,34.5938 32.2812,-19.875 c 0,0 -23.9587,-14.7293 -31.6875,-18.5938 -7.72882,-3.86441 -31.875,-10.625 -31.875,-10.625 z  m -17.375,18.375 c 0,0 -9.68805,6.76059 -21.2812,10.625 -11.5932,3.86441 -15.4375,1.9375 -15.4375,1.9375 0,0 -5.80719,13.5191 -3.875,31.875 1.93219,18.3559 4.83368,29.9455 12.5625,32.8438 7.72882,2.89832 7.71875,-0.96875 7.71875,-0.96875 l 62.8125,-40.5625 -42.5,-35.75 z "/>
<path style="fill:url(#linearGradient2283)" id="path1380" d="m 469.25,325.7188 c 0,0 -1.54541,2.36737 -2.6875,6.59375 -1.14212,4.22638 -1.125,8.4375 -1.125,8.4375 0,0 -0.011414,2.83783 0.75,6.125 0.761414,3.28717 2.28125,7.5 2.28125,7.5 0,0 5.71301,1.40793 6.09375,0.46875 0.380676,-0.939178 0,-7.05148 0,-13.1562 0,-6.10474 0,-15.5 0,-15.5 l -5.3125,-.4688 z  m 18.3438,1.5938 c 0,0 -1.61197,2.41025 -2.8125,6.78125 -1.20056,4.37097 -1.21875,8.75 -1.21875,8.75 0,0 0.012146,2.91284 0.8125,6.3125 0.800385,3.39966 2.40625,7.78125 2.40625,7.78125 0,0 6.00607,1.44009 6.40625,0.46875 0.400177,-0.971313 0,-7.28009 0,-13.5938 0,-6.31363 0,-16.0312 0,-16.0312 l -5.5938,-.4688 z  m 19.875,3.625 c 0,0 -1.67838,2.41025 -2.9375,6.78125 -1.25912,4.37097 -1.25,8.75 -1.25,8.75 0,0 0.004333,2.91284 0.84375,6.3125 0.839417,3.39966 2.5,7.78125 2.5,7.78125 0,0 6.29901,1.44009 6.71875,0.46875 0.419678,-0.971313 0,-7.28009 0,-13.5938 0,-6.31363 0,-16.0312 0,-16.0312 l -5.875,-.4688 z  m 133.4062,2.9375 c -1.44916,-0.120758 -3.38031,0.113342 -5.3125,1.5625 -3.86438,2.89828 -3.87762,10.6149 -4.84375,18.3438 -0.966125,7.72882 -0.872375,17.2659 0.09375,23.0625 -0.587036,2.69028 3.78125,4.96875 3.78125,4.96875 0,0 15.6395,4.28964 19.7812,2.21875 -0.5177,-3.62405 -3.34637,-12.331 -4.3125,-19.0938 -0.966125,-6.76273 -1.9375,-18.875 -1.9375,-18.875 0,0 2.4295,-5.85699 -0.46875,-10.6875 -0.827393,-0.171021 -4.375,-0.90625 -4.375,-0.90625 0,0 -0.957092,-0.472992 -2.40625,-0.59375 z  m -114.0312,.1562 c 0,0 -1.776,2.41028 -3.09375,6.78125 -1.31781,4.37097 -1.3125,8.75 -1.3125,8.75 0,0 -0.00354,2.91284 0.875,6.3125 0.87854,3.39966 2.65625,7.78125 2.65625,7.78125 0,0 6.59198,1.44006 7.03125,0.46875 0.43927,-0.971313 0,-7.28009 0,-13.5938 0,-6.31363 0,-16.0312 0,-16.0312 l -6.1562,-.4688 z  m 20.4062,2.5938 c 0,0 -1.84222,2.46307 -3.21875,6.90625 -1.37653,4.44318 -1.375,8.90625 -1.375,8.90625 0,0 -0.011414,2.95047 0.90625,6.40625 0.917664,3.45581 2.75,7.90625 2.75,7.90625 0,0 6.88495,1.45612 7.34375,0.46875 0.458801,-0.987366 0,-7.39456 0,-13.8125 0,-6.41791 0,-16.2812 0,-16.2812 l -6.4062,-.5 z  m 21.875,2.625 c 0,0 -2.07184,2.59051 -3.625,7.25 -1.55316,4.65949 -1.5625,9.3125 -1.5625,9.3125 0,0 -0.00415,3.09473 1.03125,6.71875 1.03546,3.62405 3.125,8.28125 3.125,8.28125 0,0 7.76349,1.56668 8.28125,0.53125 0.5177,-1.03543 0,-7.76962 0,-14.5 0,-6.73038 0,-17.0938 0,-17.0938 l -7.25,-.5 z  m 24.8438,3.0938 c 0,0 -2.07184,2.59051 -3.625,7.25 -1.55316,4.65949 -1.5625,9.3125 -1.5625,9.3125 0,0 -0.00415,3.0947 1.03125,6.71875 1.03546,3.62405 3.125,8.3125 3.125,8.3125 0,0 7.76355,1.53546 8.28125,0.5 0.5177,-1.03543 0,-7.76962 0,-14.5 0,-6.73038 0,-17.0625 0,-17.0625 l -7.25,-.5312 z "/>
</g>
</g>
<g style="stroke:#000">
<path style="fill:url(#linearGradient2285)" id="path1396" d="m 399.163,345.1904 a 17.3437,18.3791 0 1,1 -34.6873,0 17.3437,18.3791 0 1,1 34.6873,0 z "/>
<path style="fill:url(#linearGradient2287)" id="path2157" d="m 545.777,257.3658 a 15.2761,18.638 0 1,1 -30.5522,0 15.2761,18.638 0 1,1 30.5522,0 z "/>
</g>
<g style="fill-rule:evenodd">
<path style="fill-opacity:.162" id="path2177" d="m874,428.094482c0,0 -4,6 -38,6c-34,0 -62,-6 -90,-12c-28,-6 -66,-26 -66,-26c0,0 -28,-4 -36,0c-8,4 0,10 20,12c20,2 84,22 112,26c28,4 54,6 70,4c16,-2 28,-10 28,-10z"/>
<path style="fill-opacity:.189" id="path2179" d="m 324,284.0945 l 50,-6 c 0,0 0,-2 -1.66666,14 -1.66669,16 -6.66669,-4 -15,-6 -8.33334,-2 -33.3333,-2 -33.3333,-2 z "/>
<path style="fill-opacity:.086" id="path2181" d="m 328.4865,282.0945 l 53.5135,-2 -90,-80 c 0,0 55.946,52 58.3784,64 2.43243,12 -21.8919,18 -21.8919,18 z "/>
<path style="fill:#595b5e;fill-opacity:.043" id="path2183" d="m 382,282.0945 c 0,0 58,-2 150,4 92,6 137.824,7.23529 137.824,7.23529 28.2941,1.52942 50,1.52942 22.2941,14.5882 -20.0588,13.8235 -27.5294,10.7647 -35.5294,16.7647 -8,6 -18.5883,9.41177 -28.5883,9.41177 -10,0 -46.9775,-2.85959 -72.9775,-6.85959 -26,-4 -125.023,-16.1629 -141.023,-16.1629 -16,0 -34.9775,-7.14038 -42.9775,-15.1404 -8,-8 10.9775,-13.8371 10.9775,-13.8371 z "/>
<g style="fill-opacity:.092">
<path id="path2201" d="m 421.7684,372.0731 l 157.8928,36.7696 c 0,0 -101.657,-19.4662 -116.797,-12.9775 -15.1404,6.48874 -17.3033,8.65164 -28.1179,-2.16293 -10.8146,-10.8146 -12.9775,-21.6291 -12.9775,-21.6291 z "/>
<path id="path2203" d="m 140.5895,601.3421 l 406.628,-188.1736 -47.5841,8.6516 -359.0439,179.5219 z "/>
</g>
<path style="fill-opacity:.065" id="path2207" d="m 238.4648,186.0625 h 42.7141 c 0,0 -21.3571,0 -90.7675,32.0382 -69.4104,32.0382 48.0534,-32.0382 48.0534,-32.0382 z "/>
<g style="fill-opacity:.146">
<path id="path2211" d="m 448.0492,272.4161 c 0,0 45.4212,2.1629 49.747,-6.48877 4.32581,-8.65164 0,-10.8146 6.48874,-19.4662 6.48874,-8.65166 12.9774,-12.9775 12.9774,-12.9775 0,0 -8.65164,10.8146 -8.65164,19.4662 0,8.65167 2.16293,21.6291 2.16293,21.6291 l -62.7245,-2.1629 z "/>
<path id="path2213" d="m 365.5326,320.1632 c 0,0 -8.65167,2.1629 -8.65167,17.3033 0,15.1404 -2.1629,19.4662 2.16293,23.7921 4.32581,4.32584 17.3033,6.48877 17.3033,6.48877 0,0 -4.32584,6.48874 -19.4662,2.1629 -15.1404,-4.32584 -30.2808,-10.8146 -30.2808,-10.8146 0,0 23.7921,10.8146 23.7921,4.32584 0,-6.48877 -2.16293,-15.1404 0,-25.955 2.1629,-10.8146 15.1404,-17.3033 15.1404,-17.3033 z "/>
</g>
</g>
</g>
</g>
</g>
</svg>
