<svg xmlns="http://www.w3.org/2000/svg" width="45.472" height="80.45" viewBox="0 0 45.472 80.45">
  <defs>
    <style>
      .cls-1 {
        fill: #fff;
        fill-rule: evenodd;
      }
    </style>
  </defs>
  <path id="icon-3" class="cls-1" d="M49.476,81.45H18a7,7,0,0,1-7-7V8a7,7,0,0,1,7-7h31.48a7,7,0,0,1,7,7V74.454A7,7,0,0,1,49.476,81.45ZM52.974,8a3.5,3.5,0,0,0-3.5-3.5H18A3.5,3.5,0,0,0,14.5,8v7H52.974Zm0,10.493H14.5V63.961H52.974Zm0,48.969H14.5v7a3.5,3.5,0,0,0,3.5,3.5h31.48a3.5,3.5,0,0,0,3.5-3.5ZM33.736,76.2a3.5,3.5,0,1,1,3.5-3.5A3.5,3.5,0,0,1,33.736,76.2ZM21.493,23.736h3.5a1.748,1.748,0,0,1,1.749,1.749v3.5a1.748,1.748,0,0,1-1.749,1.749h-3.5a1.748,1.748,0,0,1-1.749-1.749v-3.5A1.748,1.748,0,0,1,21.493,23.736Zm0,12.242h3.5a1.748,1.748,0,0,1,1.749,1.749v3.5a1.747,1.747,0,0,1-1.749,1.749h-3.5a1.747,1.747,0,0,1-1.749-1.749v-3.5A1.748,1.748,0,0,1,21.493,35.978Zm0,12.242h3.5a1.747,1.747,0,0,1,1.749,1.749v3.5a1.747,1.747,0,0,1-1.749,1.749h-3.5a1.747,1.747,0,0,1-1.749-1.749v-3.5A1.747,1.747,0,0,1,21.493,48.22ZM31.987,23.736h3.5a1.748,1.748,0,0,1,1.749,1.749v3.5a1.748,1.748,0,0,1-1.749,1.749h-3.5a1.748,1.748,0,0,1-1.749-1.749v-3.5A1.748,1.748,0,0,1,31.987,23.736Zm0,12.242h3.5a1.748,1.748,0,0,1,1.749,1.749v3.5a1.747,1.747,0,0,1-1.749,1.749h-3.5a1.747,1.747,0,0,1-1.749-1.749v-3.5A1.748,1.748,0,0,1,31.987,35.978Zm0,12.242h3.5a1.747,1.747,0,0,1,1.749,1.749v3.5a1.747,1.747,0,0,1-1.749,1.749h-3.5a1.747,1.747,0,0,1-1.749-1.749v-3.5A1.747,1.747,0,0,1,31.987,48.22ZM42.48,23.736h3.5a1.748,1.748,0,0,1,1.749,1.749v3.5a1.748,1.748,0,0,1-1.749,1.749h-3.5a1.748,1.748,0,0,1-1.749-1.749v-3.5A1.748,1.748,0,0,1,42.48,23.736Zm0,12.242h3.5a1.748,1.748,0,0,1,1.749,1.749v3.5a1.747,1.747,0,0,1-1.749,1.749h-3.5a1.747,1.747,0,0,1-1.749-1.749v-3.5A1.748,1.748,0,0,1,42.48,35.978ZM28.489,8H38.982a1.749,1.749,0,1,1,0,3.5H28.489a1.749,1.749,0,1,1,0-3.5Z" transform="translate(-11 -1)"/>
</svg>
