<svg xmlns="http://www.w3.org/2000/svg" width="80.245" height="66.289" viewBox="0 0 80.245 66.289">
  <defs>
    <style>
      .cls-1 {
        fill: #fff;
        fill-rule: evenodd;
      }
    </style>
  </defs>
  <path id="icon-1" class="cls-1" d="M74.267,71.289H7.978A6.978,6.978,0,0,1,1,64.311V11.978A6.978,6.978,0,0,1,7.978,5H74.267a6.978,6.978,0,0,1,6.978,6.978V64.311A6.978,6.978,0,0,1,74.267,71.289Zm3.489-59.311a3.49,3.49,0,0,0-3.489-3.489H7.978a3.49,3.49,0,0,0-3.489,3.489V22.444H77.756Zm0,13.956H4.489V64.311A3.49,3.49,0,0,0,7.978,67.8H74.267a3.49,3.49,0,0,0,3.489-3.489ZM70.778,50.356H67.289a1.744,1.744,0,0,1-1.744-1.744V45.122a1.745,1.745,0,0,1,1.744-1.744h3.489a1.744,1.744,0,0,1,1.744,1.744v3.489A1.743,1.743,0,0,1,70.778,50.356Zm0-12.211H67.289A1.744,1.744,0,0,1,65.544,36.4V32.911a1.744,1.744,0,0,1,1.744-1.744h3.489a1.743,1.743,0,0,1,1.744,1.744V36.4A1.743,1.743,0,0,1,70.778,38.144ZM56.822,50.356H53.333a1.744,1.744,0,0,1-1.744-1.744V45.122a1.745,1.745,0,0,1,1.744-1.744h3.489a1.744,1.744,0,0,1,1.744,1.744v3.489A1.743,1.743,0,0,1,56.822,50.356Zm0-12.211H53.333A1.744,1.744,0,0,1,51.589,36.4V32.911a1.744,1.744,0,0,1,1.744-1.744h3.489a1.743,1.743,0,0,1,1.744,1.744V36.4A1.743,1.743,0,0,1,56.822,38.144ZM42.867,50.356H39.378a1.743,1.743,0,0,1-1.744-1.744V45.122a1.744,1.744,0,0,1,1.744-1.744h3.489a1.744,1.744,0,0,1,1.744,1.744v3.489A1.743,1.743,0,0,1,42.867,50.356Zm0-12.211H39.378A1.743,1.743,0,0,1,37.633,36.4V32.911a1.743,1.743,0,0,1,1.744-1.744h3.489a1.743,1.743,0,0,1,1.744,1.744V36.4A1.743,1.743,0,0,1,42.867,38.144ZM28.911,62.567H25.422a1.743,1.743,0,0,1-1.744-1.744V57.333a1.743,1.743,0,0,1,1.744-1.744h3.489a1.743,1.743,0,0,1,1.744,1.744v3.489A1.743,1.743,0,0,1,28.911,62.567Zm0-12.211H25.422a1.743,1.743,0,0,1-1.744-1.744V45.122a1.744,1.744,0,0,1,1.744-1.744h3.489a1.744,1.744,0,0,1,1.744,1.744v3.489A1.743,1.743,0,0,1,28.911,50.356Zm0-12.211H25.422A1.743,1.743,0,0,1,23.678,36.4V32.911a1.743,1.743,0,0,1,1.744-1.744h3.489a1.743,1.743,0,0,1,1.744,1.744V36.4A1.743,1.743,0,0,1,28.911,38.144ZM14.956,62.567H11.467a1.743,1.743,0,0,1-1.744-1.744V57.333a1.743,1.743,0,0,1,1.744-1.744h3.489A1.743,1.743,0,0,1,16.7,57.333v3.489A1.743,1.743,0,0,1,14.956,62.567Zm0-12.211H11.467a1.743,1.743,0,0,1-1.744-1.744V45.122a1.744,1.744,0,0,1,1.744-1.744h3.489A1.744,1.744,0,0,1,16.7,45.122v3.489A1.743,1.743,0,0,1,14.956,50.356Zm24.422,5.233h3.489a1.743,1.743,0,0,1,1.744,1.744v3.489a1.743,1.743,0,0,1-1.744,1.744H39.378a1.743,1.743,0,0,1-1.744-1.744V57.333A1.743,1.743,0,0,1,39.378,55.589Z" transform="translate(-1 -5)"/>
</svg>
