<svg xmlns="http://www.w3.org/2000/svg" width="80.339" height="71.395" viewBox="0 0 80.339 71.395">
  <defs>
    <style>
      .cls-1 {
        fill: #f8f8f8;
      }
    </style>
  </defs>
  <path id="icon-2" class="cls-1" d="M91.812,50.8H90.636V34.718a7.462,7.462,0,0,0-7.453-7.453H50.862l-21.8-6.23-.019,0-.019-.006-.039-.008-.061-.012L28.865,21l-.064-.006h-.117l-.048,0L28.569,21l-.045.008-.068.014-.041.011-.068.021-.038.014-.067.028-.035.017c-.022.011-.044.022-.065.035l-.033.02c-.021.013-.042.027-.062.041l-.031.024c-.019.015-.038.03-.057.046l-.03.028c-.017.016-.034.033-.051.05l-.03.033c-.015.017-.03.034-.044.052l-.029.04c-.012.017-.025.035-.036.053s-.019.031-.028.047-.02.035-.029.053-.017.036-.025.054-.016.035-.022.054-.013.039-.02.059-.009.025-.013.038,0,.013,0,.019,0,.013-.006.019l-1.346,5.384H22.458a7.462,7.462,0,0,0-7.453,7.429c0,.008,0,.016,0,.025v40.8a1.177,1.177,0,1,0,2.354,0V40.146a7.424,7.424,0,0,0,5.1,2.026H83.187a5.105,5.105,0,0,1,5.1,5.1V55.51H75.333c-.034,0-.068,0-.1.005s-.075.009-.111.015l-.016,0c-.031.006-.061.014-.091.023l-.02.005c-.027.008-.053.018-.078.028l-.03.011c-.022.009-.043.019-.063.03l-.041.02-.047.028-.052.032-.033.024c-.02.014-.04.029-.059.045l-.024.022c-.021.018-.041.036-.061.055s-.022.024-.033.036-.031.033-.045.05-.047.06-.068.092v0l-6.276,9.415a1.159,1.159,0,0,0-.11.207c-.011.027-.02.054-.029.082,0,.008-.006.016-.009.025-.009.029-.016.058-.022.088,0,.008,0,.015-.005.023-.005.026-.009.053-.012.079,0,.011,0,.023,0,.034s0,.043,0,.065,0,.033,0,.05,0,.032,0,.048,0,.045,0,.067,0,.022,0,.032c0,.027.007.054.012.081,0,.007,0,.015.005.022.006.03.013.059.022.088,0,.008.006.016.009.025.009.027.018.055.029.082a1.172,1.172,0,0,0,.11.208l6.276,9.413h0a1.219,1.219,0,0,0,.082.108l.03.032q.03.033.062.063l.038.035c.023.02.047.038.071.056l.033.024a1.175,1.175,0,0,0,.11.066l.029.014c.03.015.061.029.092.041l.037.014q.045.016.091.028l.038.01c.032.007.064.013.1.018l.036.005a1.186,1.186,0,0,0,.123.007H88.283v8.239a5.106,5.106,0,0,1-5.1,5.1H22.459a5.106,5.106,0,0,1-5.1-5.1c0-.006,0-.012,0-.018V80.223a1.177,1.177,0,0,0-2.354,0v4.709c0,.012,0,.024,0,.036a7.461,7.461,0,0,0,7.452,7.417H83.183a7.462,7.462,0,0,0,7.453-7.452h0v-8.24h1.176a3.534,3.534,0,0,0,3.53-3.53V54.332A3.535,3.535,0,0,0,91.812,50.8ZM29.581,23.632l20.765,5.933h0l13.917,3.976H27.1Zm58.7,18.211a7.424,7.424,0,0,0-5.1-2.025H22.458a5.1,5.1,0,0,1,0-10.2h3.2l-.981,3.924h-2.22a1.177,1.177,0,0,0,0,2.354H81.612a1.177,1.177,0,1,0,0-2.354H72.834L59.1,29.619H83.183a5.106,5.106,0,0,1,5.1,5.1Zm4.706,31.319h0a1.178,1.178,0,0,1-1.176,1.176H75.965L70.474,66.1l5.492-8.238H91.812l.049,0a3.517,3.517,0,0,0,1.127-.2v15.5ZM91.812,55.509H90.636V53.156h1.176a1.176,1.176,0,0,1,0,2.352Z" transform="translate(-15.004 -20.99)"/>
</svg>
